<mxfile host="app.diagrams.net" modified="2024-01-10T04:04:05.845Z" agent="Mozilla/5.0 (Windows NT 10.0; Win64; x64) AppleWebKit/537.36 (KHTML, like Gecko) Chrome/120.0.0.0 Safari/537.36" version="22.1.18" etag="SgpLmrfAchnwyR4o5RWP" type="github">
  <diagram name="Page-1" id="HDw0a8xh6KtnTCDjhHMJ">
    <mxGraphModel>
      <root>
        <mxCell id="0" />
        <mxCell id="1" parent="0" />
      </root>
    </mxGraphModel>
  </diagram>
</mxfile>
